<svg xmlns="http://www.w3.org/2000/svg" viewBox="-16 0 452 216" role="img" aria-labelledby="ab-title ab-desc" class="dg">
  <title id="ab-title">With no bounds, the same six positions support two different grids</title>
  <desc id="ab-desc">Six positions, the three longitudes 12.0, 12.5 and 13.0 crossed with the two latitudes 45.0 and 45.5, are drawn as dots. Two candidate grids are laid over them. The shaded grid reads each position as the center of its cell, so its cells box each dot without touching it, and it begins at 11.75, 44.75. The dashed grid reads each position as a cell corner, so its lines cross exactly at the dots, and it begins at 12.0, 45.0. The dots are the same under either reading; only the grid drawn around them moves, by half a cell along each axis at once, measured by the arrow at the lower left. Nothing in the coordinates chooses between the two, which is what an axis's bounds member settles.</desc>

  <rect x="-15" y="1" width="450" height="214" rx="14" style="fill:var(--dg-panel);stroke:var(--dg-graticule)" stroke-width="2"/>

  <!-- READING A: positions as cell centers. Shaded cells box each dot. -->
  <g style="fill:var(--dg-domain);stroke:var(--dg-domain)" fill-opacity="0.18" stroke-width="1.5">
    <rect x="70" y="48" width="56" height="56"/><rect x="126" y="48" width="56" height="56"/><rect x="182" y="48" width="56" height="56"/>
    <rect x="70" y="104" width="56" height="56"/><rect x="126" y="104" width="56" height="56"/><rect x="182" y="104" width="56" height="56"/>
  </g>

  <!-- READING B: positions as cell corners. Dashed lines cross at each dot. -->
  <g style="stroke:var(--dg-domain)" stroke-width="1.5" stroke-dasharray="4 3">
    <line x1="98" y1="20" x2="266" y2="20"/><line x1="98" y1="76" x2="266" y2="76"/><line x1="98" y1="132" x2="266" y2="132"/>
    <line x1="98" y1="20" x2="98" y2="132"/><line x1="154" y1="20" x2="154" y2="132"/><line x1="210" y1="20" x2="210" y2="132"/><line x1="266" y1="20" x2="266" y2="132"/>
  </g>

  <!-- THE POSITIONS: identical under either reading -->
  <g style="fill:var(--dg-domain)">
    <circle cx="98" cy="132" r="5"/><circle cx="154" cy="132" r="5"/><circle cx="210" cy="132" r="5"/>
    <circle cx="98" cy="76" r="5"/><circle cx="154" cy="76" r="5"/><circle cx="210" cy="76" r="5"/>
  </g>

  <!-- HIGHLIGHT: one grid begins half a cell along each axis from the other -->
  <line x1="70" y1="160" x2="98" y2="132" style="stroke:var(--dg-instance)" stroke-width="2"/>
  <g style="fill:var(--dg-instance)">
    <polygon points="70,160 79,157 73,151"/><polygon points="98,132 89,135 95,141"/>
  </g>
  <text x="64" y="178" font-size="10" font-weight="700" style="fill:var(--dg-instance-ink)" text-anchor="end">half a cell</text>

  <!-- Coordinates -->
  <g font-size="11" style="fill:var(--dg-domain-ink)">
    <g text-anchor="end"><text x="60" y="80">45.5</text><text x="60" y="136">45.0</text></g>
    <g text-anchor="middle"><text x="98" y="180">12.0</text><text x="154" y="180">12.5</text><text x="210" y="180">13.0</text></g>
  </g>
  <text x="24" y="108" font-size="12" font-style="italic" font-weight="700" style="fill:var(--dg-domain-ink)" text-anchor="middle">y</text>
  <text x="154" y="199" font-size="12" font-style="italic" font-weight="700" style="fill:var(--dg-domain-ink)" text-anchor="middle">x</text>

  <!-- KEY -->
  <g transform="translate(300, 76)">
    <rect x="0" y="-9" width="18" height="18" style="fill:var(--dg-domain);stroke:var(--dg-domain)" fill-opacity="0.18" stroke-width="1.5"/>
    <circle cx="9" cy="0" r="3.5" style="fill:var(--dg-domain)"/>
    <text x="26" y="4" font-size="10.5" font-weight="600" style="fill:var(--dg-line)">read as centers</text>
  </g>
  <g transform="translate(300, 118)">
    <line x1="0" y1="0" x2="18" y2="0" style="stroke:var(--dg-domain)" stroke-width="1.5" stroke-dasharray="4 3"/>
    <line x1="9" y1="-9" x2="9" y2="9" style="stroke:var(--dg-domain)" stroke-width="1.5" stroke-dasharray="4 3"/>
    <circle cx="9" cy="0" r="3.5" style="fill:var(--dg-domain)"/>
    <text x="26" y="4" font-size="10.5" font-weight="600" style="fill:var(--dg-line)">read as corners</text>
  </g>
</svg>
