<svg xmlns="http://www.w3.org/2000/svg" viewBox="0 0 760 300" role="img" aria-labelledby="cf-title cf-desc" font-family="-apple-system, BlinkMacSystemFont, 'Segoe UI', Roboto, Helvetica, Arial, sans-serif">
  <title id="cf-title">A coverage is a function from a domain to a range</title>
  <desc id="cf-desc">A box labeled Domain (positions in space and time) connects by an arrow labeled f, the coverage, to a box labeled Range (measured values).</desc>

  <rect x="1" y="1" width="758" height="298" rx="16" fill="#ffffff" stroke="#e2e8f0" stroke-width="2"/>

  <text x="380" y="48" text-anchor="middle" font-size="22" font-weight="700" fill="#0f172a">A coverage is a function: domain &#8594; range</text>

  <!-- Domain -->
  <rect x="48" y="96" width="250" height="156" rx="14" fill="#eef2ff" stroke="#6366f1" stroke-width="2.5"/>
  <text x="173" y="130" text-anchor="middle" font-size="18" font-weight="700" fill="#3730a3">DOMAIN</text>
  <text x="173" y="154" text-anchor="middle" font-size="13" fill="#4338ca">positions in space &amp; time</text>
  <text x="173" y="172" text-anchor="middle" font-size="13" fill="#4338ca">(the inputs)</text>
  <g fill="#6366f1">
    <circle cx="123" cy="206" r="4"/><circle cx="153" cy="206" r="4"/><circle cx="183" cy="206" r="4"/><circle cx="213" cy="206" r="4"/><circle cx="243" cy="206" r="4"/>
    <circle cx="123" cy="228" r="4"/><circle cx="153" cy="228" r="4"/><circle cx="183" cy="228" r="4"/><circle cx="213" cy="228" r="4"/><circle cx="243" cy="228" r="4"/>
  </g>

  <!-- Range -->
  <rect x="462" y="96" width="250" height="156" rx="14" fill="#f0fdfa" stroke="#0f766e" stroke-width="2.5"/>
  <text x="587" y="130" text-anchor="middle" font-size="18" font-weight="700" fill="#0f766e">RANGE</text>
  <text x="587" y="154" text-anchor="middle" font-size="13" fill="#0d9488">measured values</text>
  <text x="587" y="172" text-anchor="middle" font-size="13" fill="#0d9488">(the outputs)</text>
  <g fill="#0f766e" font-size="14" font-weight="600" text-anchor="middle">
    <text x="512" y="212">18.4</text><text x="557" y="212">17.9</text><text x="604" y="212">null</text><text x="650" y="212">19.2</text>
  </g>

  <!-- Arrow -->
  <line x1="306" y1="174" x2="452" y2="174" stroke="#334155" stroke-width="3"/>
  <polygon points="462,174 446,166 446,182" fill="#334155"/>
  <text x="382" y="162" text-anchor="middle" font-size="16" font-weight="700" font-style="italic" fill="#334155">f</text>
  <text x="382" y="196" text-anchor="middle" font-size="12" fill="#64748b">the coverage</text>
</svg>
