<?xml version="1.0" encoding="UTF-8"?>
<svg xmlns="http://www.w3.org/2000/svg" viewBox="9 6 796 238" role="img" aria-labelledby="tnt-title tnt-desc" font-family="sans-serif">
  <title id="tnt-title">The temporal tile set</title>
  <desc id="tnt-desc">The same array cut by tileShape [1, null, null] into four tiles, one per time step, laid out left to right along a t axis. Each tile is a single full-extent 800-by-600 image with its own x and y axes, labelled with its time index {t}, the URL its template expands to, and its shape [1, 600, 800].</desc>
  <style>
    .axis{stroke:#64748b;stroke-width:1.2}.tk{stroke:#64748b;stroke-width:1.2}
    .tick{font-size:11px;fill:#475569}.url{font-size:10px;font-family:monospace;fill:#1e293b}
    .shp{font-size:9.5px;font-family:monospace;fill:#475569}.idx{font-size:13px;font-family:monospace;font-weight:700;fill:#4338ca}
    .axl{font-size:13px;font-style:italic;fill:#334155}.axs{font-size:11px;font-style:italic;fill:#334155}
  </style>
  <rect x="12" y="9" width="790" height="232" rx="12" fill="#ffffff" stroke="#e2e8f0" stroke-width="1"/>
  <g>
    <rect x="56" y="40" width="140" height="112" rx="2" fill="#ffffff" stroke="#4338ca" stroke-width="1.4"/>
    <text class="idx" x="126" y="76" text-anchor="middle">{t}=0</text>
    <text class="url" x="126" y="100" text-anchor="middle">…/temporal/0.covjson</text>
    <text class="shp" x="126" y="118" text-anchor="middle">[1, 600, 800]</text>
    <line class="axis" x1="47" y1="164" x2="214" y2="164" marker-end="url(#c)"/>
    <line class="axis" x1="47" y1="164" x2="47" y2="27" marker-end="url(#c)"/>
    <text class="tick" x="56" y="177" text-anchor="middle">0</text><text class="tick" x="196" y="177" text-anchor="middle">800</text>
    <text class="axs" x="126" y="177" text-anchor="middle">x</text>
    <text class="tick" x="43" y="155" text-anchor="end">0</text><text class="tick" x="43" y="45" text-anchor="end">600</text>
    <text class="axs" x="29" y="99" text-anchor="middle">y</text>
  </g>
  <g>
    <rect x="244" y="40" width="140" height="112" rx="2" fill="#ffffff" stroke="#4338ca" stroke-width="1.4"/>
    <text class="idx" x="314" y="76" text-anchor="middle">{t}=1</text>
    <text class="url" x="314" y="100" text-anchor="middle">…/temporal/1.covjson</text>
    <text class="shp" x="314" y="118" text-anchor="middle">[1, 600, 800]</text>
    <line class="axis" x1="235" y1="164" x2="402" y2="164" marker-end="url(#c)"/>
    <line class="axis" x1="235" y1="164" x2="235" y2="27" marker-end="url(#c)"/>
    <text class="tick" x="244" y="177" text-anchor="middle">0</text><text class="tick" x="384" y="177" text-anchor="middle">800</text>
    <text class="axs" x="314" y="177" text-anchor="middle">x</text>
    <text class="tick" x="231" y="155" text-anchor="end">0</text><text class="tick" x="231" y="45" text-anchor="end">600</text>
    <text class="axs" x="217" y="99" text-anchor="middle">y</text>
  </g>
  <g>
    <rect x="432" y="40" width="140" height="112" rx="2" fill="#ffffff" stroke="#4338ca" stroke-width="1.4"/>
    <text class="idx" x="502" y="76" text-anchor="middle">{t}=2</text>
    <text class="url" x="502" y="100" text-anchor="middle">…/temporal/2.covjson</text>
    <text class="shp" x="502" y="118" text-anchor="middle">[1, 600, 800]</text>
    <line class="axis" x1="423" y1="164" x2="590" y2="164" marker-end="url(#c)"/>
    <line class="axis" x1="423" y1="164" x2="423" y2="27" marker-end="url(#c)"/>
    <text class="tick" x="432" y="177" text-anchor="middle">0</text><text class="tick" x="572" y="177" text-anchor="middle">800</text>
    <text class="axs" x="502" y="177" text-anchor="middle">x</text>
    <text class="tick" x="419" y="155" text-anchor="end">0</text><text class="tick" x="419" y="45" text-anchor="end">600</text>
    <text class="axs" x="405" y="99" text-anchor="middle">y</text>
  </g>
  <g>
    <rect x="620" y="40" width="140" height="112" rx="2" fill="#ffffff" stroke="#4338ca" stroke-width="1.4"/>
    <text class="idx" x="690" y="76" text-anchor="middle">{t}=3</text>
    <text class="url" x="690" y="100" text-anchor="middle">…/temporal/3.covjson</text>
    <text class="shp" x="690" y="118" text-anchor="middle">[1, 600, 800]</text>
    <line class="axis" x1="611" y1="164" x2="778" y2="164" marker-end="url(#c)"/>
    <line class="axis" x1="611" y1="164" x2="611" y2="27" marker-end="url(#c)"/>
    <text class="tick" x="620" y="177" text-anchor="middle">0</text><text class="tick" x="760" y="177" text-anchor="middle">800</text>
    <text class="axs" x="690" y="177" text-anchor="middle">x</text>
    <text class="tick" x="607" y="155" text-anchor="end">0</text><text class="tick" x="607" y="45" text-anchor="end">600</text>
    <text class="axs" x="593" y="99" text-anchor="middle">y</text>
  </g>
  <line class="axis" x1="47" y1="198" x2="772" y2="198" marker-end="url(#c)"/>
  <line class="tk" x1="126" y1="194" x2="126" y2="202"/>
  <line class="tk" x1="314" y1="194" x2="314" y2="202"/>
  <line class="tk" x1="502" y1="194" x2="502" y2="202"/>
  <line class="tk" x1="690" y1="194" x2="690" y2="202"/>
  <text class="tick" x="126" y="212" text-anchor="middle">0</text>
  <text class="tick" x="314" y="212" text-anchor="middle">1</text>
  <text class="tick" x="502" y="212" text-anchor="middle">2</text>
  <text class="tick" x="690" y="212" text-anchor="middle">3</text>
  <text class="axl" x="408" y="226" text-anchor="middle">t</text>
  <defs><marker id="c" markerWidth="7" markerHeight="7" refX="5" refY="3.5" orient="auto"><path d="M0,0 L7,3.5 L0,7 z" fill="#64748b"/></marker></defs>
</svg>
